HIERARCHY
ROOT mixamorig:Hips
{
	OFFSET -0.000008 104.274872 1.554316
	CHANNELS 6 Xposition Yposition Zposition Xrotation Yrotation Zrotation
	JOINT mixamorig:Spine
	{
		OFFSET -0.000005 10.181587 0.131521
		CHANNELS 6 Xposition Yposition Zposition Xrotation Yrotation Zrotation
		JOINT mixamorig:Spine1
		{
			OFFSET -0.000000 9.893967 -1.470711
			CHANNELS 3 Xrotation Yrotation Zrotation
			JOINT mixamorig:Spine2
			{
				OFFSET -0.000000 9.220772 -1.370643
				CHANNELS 3 Xrotation Yrotation Zrotation
				JOINT mixamorig:Neck
				{
					OFFSET 0.000001 16.740387 -2.049035
					CHANNELS 6 Xposition Yposition Zposition Xrotation Yrotation Zrotation
					JOINT mixamorig:Head
					{
						OFFSET 0.000000 9.617889 1.685008
						CHANNELS 6 Xposition Yposition Zposition Xrotation Yrotation Zrotation
						JOINT mixamorig:HeadTop_End
						{
							OFFSET 0.000002 22.037369 7.501095
							CHANNELS 6 Xposition Yposition Zposition Xrotation Yrotation Zrotation
							End Site
							{
								OFFSET 0.000002 23.106552 -2.828258
							}
						}
					}
				}
				JOINT mixamorig:RightShoulder
				{
					OFFSET -4.569969 11.014908 -2.160884
					CHANNELS 6 Xposition Yposition Zposition Xrotation Yrotation Zrotation
					JOINT mixamorig:RightArm
					{
						OFFSET -10.592846 -0.524811 -2.232097
						CHANNELS 3 Xrotation Yrotation Zrotation
						JOINT mixamorig:RightForeArm
						{
							OFFSET -27.841518 0.000000 -0.000004
							CHANNELS 3 Xrotation Yrotation Zrotation
							JOINT mixamorig:RightHand
							{
								OFFSET -28.328838 0.000000 0.000019
								CHANNELS 3 Xrotation Yrotation Zrotation
								JOINT mixamorig:RightHandThumb1
								{
									OFFSET -2.464806 -1.573990 2.681852
									CHANNELS 6 Xposition Yposition Zposition Xrotation Yrotation Zrotation
									JOINT mixamorig:RightHandThumb2
									{
										OFFSET -3.215187 -1.872772 1.924281
										CHANNELS 3 Xrotation Yrotation Zrotation
										JOINT mixamorig:RightHandThumb3
										{
											OFFSET -2.654839 -1.527985 1.512611
											CHANNELS 3 Xrotation Yrotation Zrotation
											JOINT mixamorig:RightHandThumb4
											{
												OFFSET -2.018822 -1.152008 1.108052
												CHANNELS 3 Xrotation Yrotation Zrotation
												End Site
												{
													OFFSET -1.888100 -1.145340 1.324313
												}
											}
										}
									}
								}
								JOINT mixamorig:RightHandIndex1
								{
									OFFSET -9.108284 -0.517868 2.259834
									CHANNELS 6 Xposition Yposition Zposition Xrotation Yrotation Zrotation
									JOINT mixamorig:RightHandIndex2
									{
										OFFSET -3.699997 0.000015 0.001215
										CHANNELS 3 Xrotation Yrotation Zrotation
										JOINT mixamorig:RightHandIndex3
										{
											OFFSET -2.850006 0.000000 -0.000521
											CHANNELS 3 Xrotation Yrotation Zrotation
											JOINT mixamorig:RightHandIndex4
											{
												OFFSET -2.772186 0.000000 -0.000020
												CHANNELS 3 Xrotation Yrotation Zrotation
												End Site
												{
													OFFSET -2.772186 0.000000 -0.000502
												}
											}
										}
									}
								}
								JOINT mixamorig:RightHandMiddle1
								{
									OFFSET -9.532501 -0.000046 -0.000025
									CHANNELS 6 Xposition Yposition Zposition Xrotation Yrotation Zrotation
									JOINT mixamorig:RightHandMiddle2
									{
										OFFSET -3.699997 0.000015 0.003713
										CHANNELS 3 Xrotation Yrotation Zrotation
										JOINT mixamorig:RightHandMiddle3
										{
											OFFSET -2.949997 0.000000 -0.002054
											CHANNELS 3 Xrotation Yrotation Zrotation
											JOINT mixamorig:RightHandMiddle4
											{
												OFFSET -2.946632 0.000015 -0.000155
												CHANNELS 3 Xrotation Yrotation Zrotation
												End Site
												{
													OFFSET -2.946625 0.000000 -0.001135
												}
											}
										}
									}
								}
								JOINT mixamorig:RightHandRing1
								{
									OFFSET -9.103592 -0.043076 -1.865134
									CHANNELS 6 Xposition Yposition Zposition Xrotation Yrotation Zrotation
									JOINT mixamorig:RightHandRing2
									{
										OFFSET -3.379272 0.000000 -0.001054
										CHANNELS 3 Xrotation Yrotation Zrotation
										JOINT mixamorig:RightHandRing3
										{
											OFFSET -2.889687 0.000000 0.000379
											CHANNELS 3 Xrotation Yrotation Zrotation
											JOINT mixamorig:RightHandRing4
											{
												OFFSET -2.638817 0.000000 0.000942
												CHANNELS 3 Xrotation Yrotation Zrotation
												End Site
												{
													OFFSET -2.638802 0.000000 0.005160
												}
											}
										}
									}
								}
								JOINT mixamorig:RightHandPinky1
								{
									OFFSET -8.076675 -0.486710 -3.806279
									CHANNELS 6 Xposition Yposition Zposition Xrotation Yrotation Zrotation
									JOINT mixamorig:RightHandPinky2
									{
										OFFSET -3.599998 -0.000031 -0.003747
										CHANNELS 3 Xrotation Yrotation Zrotation
										JOINT mixamorig:RightHandPinky3
										{
											OFFSET -2.099991 -0.000015 -0.005740
											CHANNELS 3 Xrotation Yrotation Zrotation
											JOINT mixamorig:RightHandPinky4
											{
												OFFSET -2.115776 -0.000015 -0.003680
												CHANNELS 3 Xrotation Yrotation Zrotation
												End Site
												{
													OFFSET -2.115784 -0.000015 -0.003507
												}
											}
										}
									}
								}
							}
						}
					}
				}
				JOINT mixamorig:LeftShoulder
				{
					OFFSET 4.570447 11.014709 -2.160855
					CHANNELS 6 Xposition Yposition Zposition Xrotation Yrotation Zrotation
					JOINT mixamorig:LeftArm
					{
						OFFSET 10.592369 -0.524597 -2.232120
						CHANNELS 3 Xrotation Yrotation Zrotation
						JOINT mixamorig:LeftForeArm
						{
							OFFSET 27.841522 -0.000031 0.000023
							CHANNELS 3 Xrotation Yrotation Zrotation
							JOINT mixamorig:LeftHand
							{
								OFFSET 28.328835 -0.000031 0.000018
								CHANNELS 3 Xrotation Yrotation Zrotation
								JOINT mixamorig:LeftHandThumb1
								{
									OFFSET 2.466141 -1.576187 2.681734
									CHANNELS 6 Xposition Yposition Zposition Xrotation Yrotation Zrotation
									JOINT mixamorig:LeftHandThumb2
									{
										OFFSET 3.217804 -1.872055 1.916487
										CHANNELS 3 Xrotation Yrotation Zrotation
										JOINT mixamorig:LeftHandThumb3
										{
											OFFSET 2.656013 -1.528809 1.514505
											CHANNELS 3 Xrotation Yrotation Zrotation
											JOINT mixamorig:LeftHandThumb4
											{
												OFFSET 2.020889 -1.154068 1.115134
												CHANNELS 3 Xrotation Yrotation Zrotation
												End Site
												{
													OFFSET 1.908852 -1.150833 1.300489
												}
											}
										}
									}
								}
								JOINT mixamorig:LeftHandIndex1
								{
									OFFSET 9.109306 -0.518036 2.259871
									CHANNELS 6 Xposition Yposition Zposition Xrotation Yrotation Zrotation
									JOINT mixamorig:LeftHandIndex2
									{
										OFFSET 3.699997 -0.000015 -0.000323
										CHANNELS 3 Xrotation Yrotation Zrotation
										JOINT mixamorig:LeftHandIndex3
										{
											OFFSET 2.850006 -0.000015 0.000350
											CHANNELS 3 Xrotation Yrotation Zrotation
											JOINT mixamorig:LeftHandIndex4
											{
												OFFSET 2.774864 0.000000 -0.000027
												CHANNELS 3 Xrotation Yrotation Zrotation
												End Site
												{
													OFFSET 2.774872 -0.000015 -0.000099
												}
											}
										}
									}
								}
								JOINT mixamorig:LeftHandMiddle1
								{
									OFFSET 9.533401 0.000031 0.000044
									CHANNELS 6 Xposition Yposition Zposition Xrotation Yrotation Zrotation
									JOINT mixamorig:LeftHandMiddle2
									{
										OFFSET 3.699997 -0.000015 -0.000231
										CHANNELS 3 Xrotation Yrotation Zrotation
										JOINT mixamorig:LeftHandMiddle3
										{
											OFFSET 2.950005 0.000000 -0.000060
											CHANNELS 3 Xrotation Yrotation Zrotation
											JOINT mixamorig:LeftHandMiddle4
											{
												OFFSET 2.952858 0.000000 0.000063
												CHANNELS 3 Xrotation Yrotation Zrotation
												End Site
												{
													OFFSET 2.952866 0.000000 0.000228
												}
											}
										}
									}
								}
								JOINT mixamorig:LeftHandRing1
								{
									OFFSET 9.104530 -0.043030 -1.865074
									CHANNELS 6 Xposition Yposition Zposition Xrotation Yrotation Zrotation
									JOINT mixamorig:LeftHandRing2
									{
										OFFSET 3.150002 -0.000015 0.000042
										CHANNELS 3 Xrotation Yrotation Zrotation
										JOINT mixamorig:LeftHandRing3
										{
											OFFSET 2.949997 0.000000 0.000037
											CHANNELS 3 Xrotation Yrotation Zrotation
											JOINT mixamorig:LeftHandRing4
											{
												OFFSET 2.644318 -0.000015 0.000059
												CHANNELS 3 Xrotation Yrotation Zrotation
												End Site
												{
													OFFSET 2.644318 0.000000 0.000121
												}
											}
										}
									}
								}
								JOINT mixamorig:LeftHandPinky1
								{
									OFFSET 8.077782 -0.486877 -3.806256
									CHANNELS 6 Xposition Yposition Zposition Xrotation Yrotation Zrotation
									JOINT mixamorig:LeftHandPinky2
									{
										OFFSET 3.599968 0.000031 0.014726
										CHANNELS 3 Xrotation Yrotation Zrotation
										JOINT mixamorig:LeftHandPinky3
										{
											OFFSET 2.099991 0.000015 0.007705
											CHANNELS 3 Xrotation Yrotation Zrotation
											JOINT mixamorig:LeftHandPinky4
											{
												OFFSET 2.125511 0.000015 0.007514
												CHANNELS 3 Xrotation Yrotation Zrotation
												End Site
												{
													OFFSET 2.125526 0.000015 0.006258
												}
											}
										}
									}
								}
							}
						}
					}
				}
			}
		}
	}
	JOINT mixamorig:RightUpLeg
	{
		OFFSET -8.207787 -6.751671 -1.599560
		CHANNELS 6 Xposition Yposition Zposition Xrotation Yrotation Zrotation
		JOINT mixamorig:RightLeg
		{
			OFFSET -0.000001 -44.370113 0.345939
			CHANNELS 3 Xrotation Yrotation Zrotation
			JOINT mixamorig:RightFoot
			{
				OFFSET 0.000001 -44.423676 -3.043536
				CHANNELS 3 Xrotation Yrotation Zrotation
				JOINT mixamorig:RightToeBase
				{
					OFFSET -0.000003 -8.728670 10.710561
					CHANNELS 3 Xrotation Yrotation Zrotation
					JOINT mixamorig:RightToe_End
					{
						OFFSET -0.000003 -0.000677 9.278120
						CHANNELS 3 Xrotation Yrotation Zrotation
						End Site
						{
							OFFSET -0.000003 -0.000677 9.278120
						}
					}
				}
			}
		}
	}
	JOINT mixamorig:LeftUpLeg
	{
		OFFSET 8.207791 -6.751701 -1.599555
		CHANNELS 6 Xposition Yposition Zposition Xrotation Yrotation Zrotation
		JOINT mixamorig:LeftLeg
		{
			OFFSET -0.000002 -44.370033 0.346958
			CHANNELS 3 Xrotation Yrotation Zrotation
			JOINT mixamorig:LeftFoot
			{
				OFFSET 0.000000 -44.423653 -3.044392
				CHANNELS 3 Xrotation Yrotation Zrotation
				JOINT mixamorig:LeftToeBase
				{
					OFFSET -0.000003 -8.728668 10.710560
					CHANNELS 3 Xrotation Yrotation Zrotation
					JOINT mixamorig:LeftToe_End
					{
						OFFSET -0.000003 -0.000677 9.278137
						CHANNELS 3 Xrotation Yrotation Zrotation
						End Site
						{
							OFFSET -0.000003 -0.000677 9.278137
						}
					}
				}
			}
		}
	}
}
MOTION
Frames: 4
Frame Time: 0.033333
0.478548 101.630867 1.555252 -0.893300 1.577728 -5.359008 -0.000006 10.181583 0.131522 1.298038 -1.197537 3.016666 0.728748 0.264202 5.944685 0.710790 0.781496 5.851996 0.000002 16.740406 -2.049034 1.045309 -0.304695 -2.160953 0.000001 9.617909 1.685009 1.584883 0.544202 -8.137577 0.000002 22.037354 7.501094 0.000001 -0.000000 -0.000000 -4.569965 11.014929 -2.160883 4.508130 3.324388 5.471558 -1.219725 0.655876 67.345440 -0.000011 17.736780 0.000015 -11.193499 -9.123344 10.139220 -2.464819 -1.573990 2.681861 18.674033 -0.305782 -11.095007 0.917601 -31.776663 3.259774 1.627435 -7.716520 1.250102 0.000000 -0.000006 0.000000 -9.108297 -0.517890 2.259837 0.344629 -4.699116 7.844068 0.383358 -2.795073 20.565904 -0.193213 -0.226542 13.843906 0.000000 0.000001 0.000001 -9.532508 -0.000059 -0.000022 0.926600 -8.819371 15.821869 0.897856 -3.901814 33.413241 0.215651 -1.725895 15.897803 -0.000000 0.000000 0.000003 -9.103601 -0.043081 -1.865129 2.544199 -11.651220 26.899254 1.715762 -3.910743 40.218063 -0.151712 0.023499 17.812894 -0.000001 0.000001 -0.000002 -8.076688 -0.486734 -3.806276 5.536158 -15.980739 36.929648 1.266556 -4.027856 45.637521 -0.765266 -0.311762 22.119221 0.000001 0.000000 -0.000002 4.570451 11.014724 -2.160855 3.582358 -13.764049 -5.044464 4.032851 3.514351 -83.678218 -0.000012 -14.506784 0.000003 -27.592489 3.698829 -9.416235 2.466130 -1.576195 2.681725 18.639675 0.201075 11.067468 0.957399 31.893036 -3.237403 1.818112 8.673918 -0.462076 -0.000002 0.000002 0.000006 9.109305 -0.518045 2.259869 0.338885 4.666300 -7.844124 0.389506 2.835138 -20.566384 0.034514 0.809236 -10.169794 -0.000000 -0.000001 0.000003 9.533416 0.000025 0.000040 0.911571 8.765805 -15.831590 0.917427 3.992196 -33.382150 0.171149 1.492571 -12.277947 0.000001 0.000002 0.000000 9.104561 -0.043043 -1.865079 2.556124 11.673655 -26.909147 1.711096 3.886623 -40.215491 0.545094 1.835026 -19.344131 -0.000000 0.000005 0.000000 8.077806 -0.486893 -3.806262 5.722751 16.216377 -36.981970 1.528854 3.990383 -45.650167 0.557551 2.832846 -20.526320 0.000001 0.000004 -0.000006 -8.207788 -6.751671 -1.599559 -1.605294 -4.966826 10.551752 12.449046 -5.082068 3.268387 -9.847012 1.008401 -7.754718 -0.514654 0.000006 0.000003 0.000000 0.000000 -0.000000 8.207788 -6.751705 -1.599555 -19.555979 10.813096 15.936243 22.045072 9.498152 2.339204 -1.490964 3.341967 -8.781920 -0.441962 0.000002 -0.000005 0.000000 0.000000 -0.000000 
0.491551 101.615486 1.541585 -1.040289 1.593725 -5.386331 -0.000005 10.181592 0.131521 1.316913 -1.139175 3.039876 0.760943 0.379988 5.964480 0.743259 0.897160 5.872068 0.000006 16.740391 -2.049034 1.062488 -0.371944 -2.155060 0.000001 9.617895 1.685009 1.809418 0.516723 -8.216047 0.000002 22.037354 7.501094 -0.000001 0.000000 -0.000000 -4.569964 11.014932 -2.160882 4.450915 3.680454 6.087096 -0.910783 -0.615804 66.730402 -0.000001 18.579363 0.000024 -8.364457 -11.731813 7.549574 -2.464807 -1.573982 2.681857 18.671425 -0.305708 -11.063671 0.937093 -31.773152 3.309640 1.627450 -7.716524 1.250103 0.000002 -0.000004 0.000000 -9.108286 -0.517872 2.259837 0.344620 -4.699119 7.844063 0.383363 -2.795068 20.565889 -0.193204 -0.226547 13.843906 0.000000 -0.000001 0.000005 -9.532516 -0.000044 -0.000022 0.926616 -8.819375 15.821892 0.897849 -3.901807 33.413234 0.215640 -1.725903 15.897800 -0.000000 -0.000001 0.000004 -9.103589 -0.043069 -1.865129 2.544204 -11.651221 26.899250 1.715759 -3.910743 40.218073 -0.151705 0.023498 17.812877 -0.000001 -0.000001 -0.000000 -8.076688 -0.486711 -3.806278 5.536158 -15.980740 36.929661 1.266556 -4.027853 45.637497 -0.765268 -0.311766 22.119224 0.000000 -0.000000 -0.000009 4.570451 11.014710 -2.160854 3.525062 -13.876501 -5.184372 4.325031 4.143564 -83.372465 -0.000031 -15.205866 -0.000017 -26.844626 4.027873 -9.351970 2.466136 -1.576195 2.681730 18.639672 0.201072 11.067476 0.957397 31.893039 -3.237410 1.818107 8.673907 -0.462080 -0.000000 0.000002 -0.000001 9.109322 -0.518040 2.259868 0.643428 4.285857 -6.741626 0.389494 2.835138 -20.566379 0.034522 0.809242 -10.169813 0.000002 0.000002 -0.000001 9.533422 0.000029 0.000039 0.799175 8.479027 -14.666648 0.917430 3.992195 -33.382153 0.171137 1.492562 -12.277945 0.000000 0.000001 0.000003 9.104548 -0.043040 -1.865078 2.121556 11.158567 -24.118035 1.710142 3.885703 -40.202309 0.545095 1.835033 -19.344144 -0.000001 -0.000000 0.000001 8.077789 -0.486881 -3.806267 4.845083 15.821913 -32.626403 1.522334 3.983355 -45.554432 0.556999 2.831736 -20.513932 -0.000001 0.000002 -0.000002 -8.207788 -6.751664 -1.599560 -1.521810 -4.975573 10.600117 12.581475 -4.979041 3.221982 -9.919826 0.902024 -7.742657 -0.514648 -0.000001 -0.000001 -0.000000 -0.000001 -0.000000 8.207786 -6.751711 -1.599554 -19.510726 10.735272 15.922800 22.222258 9.578050 2.449515 -1.460468 3.341589 -8.832288 -0.527484 -0.000002 0.000005 0.000000 0.000003 -0.000000 
0.533115 101.598969 1.543024 -1.168859 1.697563 -5.394827 -0.000004 10.181583 0.131522 1.326255 -1.087662 3.042889 0.775264 0.479431 5.959475 0.758037 0.996563 5.867299 0.000003 16.740377 -2.049034 1.119016 -0.418126 -2.140872 0.000006 9.617912 1.685007 2.216578 0.606791 -8.265386 0.000002 22.037354 7.501096 -0.000000 0.000000 -0.000000 -4.569964 11.014876 -2.160883 4.375456 4.024466 6.469289 -0.586947 -1.967859 66.349113 -0.000002 19.518527 -0.000003 -6.242564 -13.991339 5.229906 -2.464807 -1.573973 2.681857 18.663215 -0.301489 -10.984765 0.995904 -31.755974 3.457478 1.627427 -7.716533 1.250101 0.000001 0.000000 0.000000 -9.108276 -0.517867 2.259837 0.344631 -4.699121 7.844048 0.383353 -2.795070 20.565920 -0.193206 -0.226539 13.843901 -0.000000 0.000001 -0.000007 -9.532504 -0.000057 -0.000023 0.926599 -8.819372 15.821863 0.897853 -3.901811 33.413238 0.215651 -1.725910 15.897817 -0.000002 0.000001 -0.000001 -9.103596 -0.043084 -1.865129 2.544205 -11.651224 26.899233 1.715756 -3.910742 40.218066 -0.151710 0.023497 17.812898 0.000000 0.000001 0.000000 -8.076687 -0.486713 -3.806279 5.536144 -15.980744 36.929631 1.266558 -4.027866 45.637517 -0.765260 -0.311775 22.119224 -0.000002 -0.000000 -0.000005 4.570448 11.014704 -2.160853 3.453928 -14.086664 -5.341815 5.385671 5.229545 -83.114291 -0.000032 -17.030996 -0.000004 -25.748341 4.522682 -9.055014 2.466119 -1.576217 2.681731 18.639678 0.201070 11.067470 0.957391 31.893032 -3.237415 1.818108 8.673920 -0.462069 -0.000003 -0.000006 0.000006 9.109322 -0.518043 2.259871 1.017908 3.853463 -5.439451 0.389498 2.835134 -20.566374 0.034523 0.809242 -10.169799 -0.000001 -0.000000 -0.000002 9.533410 0.000015 0.000041 0.679264 8.136748 -13.297787 0.917419 3.992196 -33.382157 0.171148 1.492568 -12.277951 0.000001 -0.000000 0.000001 9.104543 -0.043038 -1.865077 1.662681 10.507831 -20.849152 1.709025 3.884619 -40.186719 0.545096 1.835045 -19.344146 -0.000002 0.000001 -0.000000 8.077792 -0.486871 -3.806262 3.867722 15.222270 -27.529737 1.514676 3.975068 -45.441836 0.556349 2.830405 -20.499343 -0.000000 -0.000000 -0.000001 -8.207787 -6.751667 -1.599560 -1.475868 -4.986801 10.616502 12.760596 -4.873029 3.172644 -10.031950 0.709613 -7.712769 -0.514656 -0.000003 -0.000001 0.000000 -0.000001 -0.000000 8.207789 -6.751707 -1.599554 -19.494591 10.693050 15.878875 22.419604 9.529036 2.523089 -1.489349 3.341961 -8.832013 -0.594326 -0.000004 0.000001 0.000000 0.000001 -0.000000 
0.595192 101.584633 1.544299 -1.306693 1.906686 -5.366352 -0.000005 10.181610 0.131520 1.338536 -1.043671 3.028834 0.796253 0.565149 5.920265 0.779750 1.082294 5.828305 0.000002 16.740421 -2.049036 1.197848 -0.444294 -2.146683 0.000003 9.617892 1.685007 2.870200 0.777737 -8.299191 0.000003 22.037338 7.501098 0.000002 -0.000000 -0.000000 -4.569970 11.014906 -2.160885 4.294349 4.327486 6.689794 -0.708304 -3.482312 66.230398 0.000004 20.109798 0.000021 -5.485429 -15.747819 3.402792 -2.464801 -1.573976 2.681864 18.654975 -0.289249 -10.856271 1.091387 -31.727513 3.697736 1.609451 -7.720992 1.248229 0.000004 -0.000009 -0.000003 -9.108280 -0.517869 2.259838 0.344625 -4.699124 7.844037 0.383351 -2.795068 20.565898 -0.193209 -0.226546 13.843893 -0.000001 0.000000 0.000009 -9.532496 -0.000040 -0.000023 0.926597 -8.819375 15.821851 0.897851 -3.901810 33.413221 0.215656 -1.725907 15.897819 -0.000001 -0.000001 0.000002 -9.103588 -0.043066 -1.865129 2.544191 -11.651229 26.899226 1.715768 -3.910751 40.218083 -0.151704 0.023502 17.812887 0.000001 0.000001 0.000001 -8.076679 -0.486717 -3.806281 5.536143 -15.980747 36.929607 1.266567 -4.027865 45.637521 -0.765260 -0.311771 22.119209 -0.000001 -0.000002 -0.000004 4.570447 11.014708 -2.160857 3.378147 -14.334533 -5.459150 6.631038 6.455387 -82.903586 -0.000014 -18.514339 0.000011 -24.533249 4.203956 -8.998944 2.466128 -1.576205 2.681729 18.639655 0.201072 11.067487 0.957396 31.893039 -3.237400 1.818107 8.673914 -0.462077 0.000001 0.000001 0.000001 9.109299 -0.518030 2.259869 1.433342 3.414019 -4.053541 0.389504 2.835126 -20.566355 0.034519 0.809248 -10.169809 0.000001 0.000002 -0.000006 9.533403 0.000026 0.000041 0.566847 7.768551 -11.849126 0.917416 3.992188 -33.382153 0.171147 1.492573 -12.277941 0.000002 0.000002 0.000001 9.104525 -0.043036 -1.865077 1.242669 9.770067 -17.402950 1.707866 3.883477 -40.170214 0.545085 1.835031 -19.344146 -0.000000 0.000003 0.000004 8.077793 -0.486874 -3.806266 2.916414 14.434753 -22.169025 1.506574 3.966284 -45.322499 0.555662 2.829011 -20.483840 0.000000 0.000004 -0.000002 -8.207786 -6.751664 -1.599560 -1.444641 -4.992660 10.609472 12.972326 -4.762423 3.098688 -10.171329 0.404405 -7.670554 -0.514645 0.000004 -0.000002 0.000000 -0.000001 -0.000000 8.207788 -6.751683 -1.599555 -19.476148 10.658582 15.790371 22.621233 9.353716 2.569041 -1.526261 3.345388 -8.778845 -0.679445 -0.000004 -0.000002 -0.000000 -0.000003 -0.000000 
